<svg id="Capa_1" data-name="Capa 1" xmlns="http://www.w3.org/2000/svg" viewBox="0 0 308 67"><title>Mesa de trabajo 1logoo</title><path d="M3.45,61.78V5.07H25.83a22.88,22.88,0,0,1,11,2.45,16.86,16.86,0,0,1,6.94,6.78,20.28,20.28,0,0,1,2.4,10,20,20,0,0,1-2.44,10,16.85,16.85,0,0,1-7,6.73,23.87,23.87,0,0,1-11.14,2.4H11.26v-9.6H23.59a12.15,12.15,0,0,0,5.72-1.21,7.84,7.84,0,0,0,3.37-3.35,10.49,10.49,0,0,0,1.13-4.94,10.42,10.42,0,0,0-1.13-4.95,7.66,7.66,0,0,0-3.39-3.29,12.37,12.37,0,0,0-5.76-1.18H15.45V61.78Z"/><path d="M67.15,63.12a24.91,24.91,0,0,1-11.43-3.18A19.79,19.79,0,0,1,52,57.17a18.58,18.58,0,0,1-3.55-4.82A24.93,24.93,0,0,1,45.9,40.71a24.82,24.82,0,0,1,2.55-11.52,18.77,18.77,0,0,1,7.19-7.73,20.89,20.89,0,0,1,10.89-2.77A22.36,22.36,0,0,1,74.38,20a17.55,17.55,0,0,1,6.37,4A18.2,18.2,0,0,1,85,30.81a26.81,26.81,0,0,1,1.53,9.48v3.24H50.61V36.22H75.42a9.1,9.1,0,0,0-1.1-4.51,8.11,8.11,0,0,0-3.06-3.09,9,9,0,0,0-4.53-1.12A9.09,9.09,0,0,0,62,28.73,8.82,8.82,0,0,0,58.75,32a9.43,9.43,0,0,0-1.19,4.58v7A11.79,11.79,0,0,0,58.74,49a8.4,8.4,0,0,0,3.34,3.54,10.06,10.06,0,0,0,5.12,1.25,12.26,12.26,0,0,0,3.6-.56,89.41,89.41,0,0,1,11.32-2.79,25.06,25.06,0,0,1,8.06,0,23.86,23.86,0,0,1,6.91,2.3L110.9,62c-1.15,0-2.72,0-4.6,0a26.79,26.79,0,0,1-3.46,0,23.76,23.76,0,0,1-4.6-1.15c-2.75-.86-2.41-.89-3.46-1.15a22.14,22.14,0,0,0-9.21,0,22.92,22.92,0,0,0-2.3.45c-1.23.31-2.13.68-3.79,1.17,0,0-1.2.37-3.18.85A35.65,35.65,0,0,1,67.15,63.12Z"/><path d="M112.6,19.25v8.86H87V19.25ZM92.8,9.06h11.8V48.71a5.35,5.35,0,0,0,.49,2.54,2.76,2.76,0,0,0,1.4,1.26,5.61,5.61,0,0,0,2.09.36,8.41,8.41,0,0,0,1.66-.16l1.28-.23,1.85,8.78c-.59.18-1.42.4-2.49.65a20.34,20.34,0,0,1-3.9.45,17.69,17.69,0,0,1-7.47-1.13c-2.13-.87-3.79-1.07-5-2.89s-1.76-5.29-1.74-8.08Z"/><path d="M156.15,23.4a12.84,12.84,0,0,0-1.64-3.59A10.41,10.41,0,0,0,152,17.16a11.42,11.42,0,0,0-3.43-1.68,14.56,14.56,0,0,0-4.25-.58,13.56,13.56,0,0,0-7.63,2.16,14.14,14.14,0,0,0-5.11,6.27,24.64,24.64,0,0,0-1.83,10,25.31,25.31,0,0,0,1.8,10.08,14,14,0,0,0,5.1,6.33A13.78,13.78,0,0,0,144.38,52a15.35,15.35,0,0,0,7-1.45,10.32,10.32,0,0,0,4.43-4.11,12.32,12.32,0,0,0,1.54-6.29l2.44.36H145.13v-9h23.73v7.15a24.78,24.78,0,0,1-3.16,12.83A21.38,21.38,0,0,1,157,59.66a27,27,0,0,1-12.69,2.9,27.3,27.3,0,0,1-14-3.53A24.29,24.29,0,0,1,120.91,49a33.47,33.47,0,0,1-3.37-15.5,35.2,35.2,0,0,1,2-12.31A26.13,26.13,0,0,1,125.19,12a24.42,24.42,0,0,1,8.44-5.73,27.44,27.44,0,0,1,10.44-2,28,28,0,0,1,9,1.4,24.45,24.45,0,0,1,7.38,4,21.31,21.31,0,0,1,5.27,6,20.63,20.63,0,0,1,2.63,7.71Z"/><path d="M173.38,61.78V19.25h11.44v7.42h.44a11.1,11.1,0,0,1,3.91-6,10.35,10.35,0,0,1,6.31-2,13.24,13.24,0,0,1,1.91.11,8.65,8.65,0,0,1,2.17.62c1.43.72,2.7,3.9,1.15,9.21-.12,0-.33-.14-.58-.22a11.83,11.83,0,0,0-7.48.22A15.3,15.3,0,0,0,189.57,30a9,9,0,0,0-1.86,1.37,8.27,8.27,0,0,0-1.35,1.74,8.82,8.82,0,0,0-1.18,4.6V61.78Z"/><path d="M214.25,62.59A17.58,17.58,0,0,1,207,61.16a11.39,11.39,0,0,1-5-4.24,12.52,12.52,0,0,1-1.85-7A12.35,12.35,0,0,1,201.43,44,10.5,10.5,0,0,1,205,40.07a17.23,17.23,0,0,1,5.11-2.21,39.15,39.15,0,0,1,6-1.06c2.48-.25,4.47-.5,6-.73a8.34,8.34,0,0,0,3.29-1,2.32,2.32,0,0,0,1-2.05v-.16a5.1,5.1,0,0,0-1.65-4.07,6.4,6.4,0,0,0-4.67-1.44c-2.22.17-1.63.16-4.41,1.27a18.14,18.14,0,0,1-5.76,1.15,24,24,0,0,1-9.21-1.15c0-3.45-1.15-5.76-1.15-9.21a25.17,25.17,0,0,0,8.06,1.15c5.08-.13,6.52-1.8,12.53-1.83a26.34,26.34,0,0,1,6.79.83,18.15,18.15,0,0,1,5.79,2.58,12.56,12.56,0,0,1,4,4.47,13.56,13.56,0,0,1,1.47,6.52V61.78H227v-5.9h-.33a11.92,11.92,0,0,1-2.74,3.51,12.44,12.44,0,0,1-4.13,2.35A16.83,16.83,0,0,1,214.25,62.59Zm3.38-8.15a9.82,9.82,0,0,0,4.59-1,8.07,8.07,0,0,0,3.13-2.82,7.25,7.25,0,0,0,1.14-4V42.07a6.24,6.24,0,0,1-1.51.65,21.28,21.28,0,0,1-2.15.52c-.79.16-1.59.3-2.38.42l-2.16.32a14.31,14.31,0,0,0-3.63,1,5.88,5.88,0,0,0-2.41,1.78,4.47,4.47,0,0,0-.85,2.79,4.22,4.22,0,0,0,1.75,3.66A7.53,7.53,0,0,0,217.63,54.44Z"/><path d="M242,61.78V19.25h11.25v7.5h.49a11.84,11.84,0,0,1,4.44-5.9,13.82,13.82,0,0,1,14.87,0,10.38,10.38,0,0,1,4.09,5.88h.45a11.33,11.33,0,0,1,4.72-5.86,14.7,14.7,0,0,1,8.1-2.2,13,13,0,0,1,9.68,3.78q3.72,3.78,3.72,10.71v28.6H292V35.5a7,7,0,0,0-1.88-5.31,6.57,6.57,0,0,0-4.71-1.78,6.33,6.33,0,0,0-5,2,7.79,7.79,0,0,0-1.8,5.36v26H267.16V35.25a6.89,6.89,0,0,0-1.78-5,6.22,6.22,0,0,0-4.7-1.86,6.46,6.46,0,0,0-3.53,1,6.94,6.94,0,0,0-2.48,2.74,8.77,8.77,0,0,0-.91,4.11V61.78Z"/></svg>